# xmcd CD database file
#
# Track frame offsets:
#	180
#	17567
#	43811
#	63197
#	81992
#	96372
#	111669
#	136447
#	149370
#	183159
#	206103
#	228787
#	250157
#	265664
#	290493
#	313289
#
# Disc length: 4396 seconds
#
# Revision: 0
# Processed by: cddbd v1.5.1PL2 Copyright (c) Steve Scherf et al.
# Submitted via: Feurio! 1.68 - http://www.feurio.com
#
DISCID=ef112a10
DTITLE=Blues Big Band - Cowards And Money
DYEAR=1994
DGENRE=Blues
TTITLE0=Shakey Ground
TTITLE1=Me And My Woman
TTITLE2=You Upset Me
TTITLE3=Only Getting Second Best
TTITLE4=Texas Flyer
TTITLE5=Pretty Woman
TTITLE6=I'll Be Creeping
TTITLE7=Too Bad Too Bad
TTITLE8=Right Place Wrong Time
TTITLE9=Empty Bed Blues
TTITLE10=Every Dog Has It's Day
TTITLE11=Cross-Eyed Blues
TTITLE12='Lectric Chair
TTITLE13=Bad Cards
TTITLE14=Your Dice Is Too Bad
TTITLE15=Not Foolish Not Wise
EXTD=recorded at Konzertscheune Calde, 18.-20. July, 1994
EXTT0=
EXTT1=
EXTT2=
EXTT3=
EXTT4=
EXTT5=
EXTT6=
EXTT7=
EXTT8=
EXTT9=
EXTT10=
EXTT11=
EXTT12=
EXTT13=
EXTT14=
EXTT15=
PLAYORDER=
